<?xml version="1.0" standalone="no"?>
<svg xmlns:xlink="http://www.w3.org/1999/xlink" id="wave" style="transform:rotate(0deg); transition: 0.3s" viewBox="0 0 1440 490" version="1.1" xmlns="http://www.w3.org/2000/svg"><defs><linearGradient id="sw-gradient-0" x1="0" x2="0" y1="1" y2="0"><stop stop-color="rgba(29, 14, 60, 1)" offset="0%"/><stop stop-color="rgba(29, 14, 60, 1)" offset="100%"/></linearGradient></defs><path style="transform:translate(0, 0px); opacity:1" fill="url(#sw-gradient-0)" d="M0,98L240,106.2C480,114,960,131,1440,130.7C1920,131,2400,114,2880,155.2C3360,196,3840,294,4320,302.2C4800,310,5280,229,5760,228.7C6240,229,6720,310,7200,294C7680,278,8160,163,8640,122.5C9120,82,9600,114,10080,114.3C10560,114,11040,82,11520,81.7C12000,82,12480,114,12960,138.8C13440,163,13920,180,14400,220.5C14880,261,15360,327,15840,351.2C16320,376,16800,359,17280,326.7C17760,294,18240,245,18720,196C19200,147,19680,98,20160,122.5C20640,147,21120,245,21600,253.2C22080,261,22560,180,23040,196C23520,212,24000,327,24480,367.5C24960,408,25440,376,25920,367.5C26400,359,26880,376,27360,318.5C27840,261,28320,131,28800,65.3C29280,0,29760,0,30240,0C30720,0,31200,0,31680,65.3C32160,131,32640,261,33120,334.8C33600,408,34080,425,34320,432.8L34560,441L34560,490L34320,490C34080,490,33600,490,33120,490C32640,490,32160,490,31680,490C31200,490,30720,490,30240,490C29760,490,29280,490,28800,490C28320,490,27840,490,27360,490C26880,490,26400,490,25920,490C25440,490,24960,490,24480,490C24000,490,23520,490,23040,490C22560,490,22080,490,21600,490C21120,490,20640,490,20160,490C19680,490,19200,490,18720,490C18240,490,17760,490,17280,490C16800,490,16320,490,15840,490C15360,490,14880,490,14400,490C13920,490,13440,490,12960,490C12480,490,12000,490,11520,490C11040,490,10560,490,10080,490C9600,490,9120,490,8640,490C8160,490,7680,490,7200,490C6720,490,6240,490,5760,490C5280,490,4800,490,4320,490C3840,490,3360,490,2880,490C2400,490,1920,490,1440,490C960,490,480,490,240,490L0,490Z"/></svg>