<svg width="414" height="303" viewBox="0 0 414 303" fill="none" xmlns="http://www.w3.org/2000/svg">
<g opacity="0.1">
<path d="M137.445 105.829C136.967 122.361 48.9331 117.512 35.0957 122.771C-2.53928 137.073 14.3141 159.456 26.5961 167.648C43.1835 178.711 98.4348 181.146 137.445 182.931V105.829Z" fill="#2F1664"/>
<path d="M247.965 301.396C334.402 295.727 401 279.666 401 246.126C401 212.587 328.261 190.857 305.117 185.661C282.585 180.602 232.314 160.261 230.966 144.427C230.93 143.997 230.929 143.57 230.966 143.147V144.427V301.997C236.495 301.971 242.164 301.776 247.965 301.396Z" fill="#2F1664"/>
<path d="M177.116 217.024C164.692 218.979 111.935 227.231 112.551 255.984C113.167 284.738 140.978 293.307 199.897 300.28V202.667C198.101 209.362 189.54 215.07 177.116 217.024Z" fill="#2F1664"/>
<path d="M230.966 143.147C233.328 116.221 290.48 117.638 292.369 95.4361C294.258 73.2339 253.638 53.4573 195.542 49.6146C137.445 45.7718 85.0168 47.2525 85.0168 71.3444C85.0168 95.4362 137.923 89.2967 137.445 105.829V182.931C156.957 183.823 172.392 184.558 177.116 185.661C196.06 190.082 201.512 196.647 199.897 202.667V300.28C209.662 301.436 220.04 302.048 230.966 301.997V144.427C230.93 143.997 230.929 143.57 230.966 143.147Z" fill="#2F1664"/>
<path d="M230.966 143.147L230.468 143.104L230.468 143.104L230.966 143.147ZM35.0957 122.771L34.9181 122.304L35.0957 122.771ZM26.5961 167.648L26.8735 167.232L26.5961 167.648ZM177.116 185.661L177.23 185.174L177.116 185.661ZM247.965 301.396L247.998 301.895L247.965 301.396ZM305.117 185.661L305.227 185.173L305.117 185.661ZM137.445 182.931L137.422 183.43L137.445 182.931ZM230.966 301.997L230.969 302.497L230.966 301.997ZM231.464 143.191C232.037 136.662 235.925 131.819 241.578 127.865C247.241 123.904 254.61 120.882 262.027 117.986C269.416 115.101 276.862 112.337 282.568 108.899C288.273 105.462 292.374 101.272 292.867 95.4785L291.871 95.3937C291.419 100.701 287.668 104.66 282.052 108.043C276.437 111.425 269.093 114.153 261.663 117.054C254.261 119.945 246.781 123.005 241.005 127.045C235.218 131.093 231.076 136.169 230.468 143.104L231.464 143.191ZM292.867 95.4785C293.354 89.7561 291.095 84.2275 286.581 79.1193C282.072 74.0156 275.292 69.3064 266.665 65.1893C249.41 56.9541 224.664 51.0398 195.575 49.1157L195.509 50.1135C224.516 52.0321 249.128 57.9274 266.235 66.0918C274.789 70.1744 281.441 74.8125 285.832 79.7814C290.219 84.7457 292.329 90.0151 291.871 95.3937L292.867 95.4785ZM195.575 49.1157C166.523 47.1941 138.847 46.5998 118.423 49.509C108.215 50.963 99.7682 53.2983 93.8607 56.8153C87.9335 60.3441 84.5168 65.0965 84.5168 71.3444L85.5168 71.3444C85.5168 65.5463 88.6537 61.0792 94.3723 57.6746C100.111 54.2582 108.402 51.9463 118.564 50.499C138.877 47.6056 166.463 48.1923 195.509 50.1135L195.575 49.1157ZM84.5168 71.3444C84.5168 77.5968 87.9683 81.869 93.0125 84.9964C98.0354 88.1108 104.701 90.134 111.28 91.9043C117.895 93.6843 124.407 95.2062 129.256 97.3126C134.128 99.4294 137.055 102.021 136.945 105.814L137.945 105.843C138.074 101.371 134.567 98.5301 129.654 96.3955C124.717 94.2505 118.092 92.7018 111.54 90.9387C104.952 89.1659 98.4215 87.1735 93.5394 84.1466C88.6786 81.1327 85.5168 77.1379 85.5168 71.3444L84.5168 71.3444ZM136.945 105.814C136.893 107.626 135.646 109.231 133.224 110.657C130.81 112.078 127.337 113.251 123.086 114.224C114.592 116.166 103.145 117.273 91.2486 118.028C79.3487 118.784 67.0568 119.187 56.8317 119.731C51.7263 120.003 47.1395 120.31 43.3931 120.714C39.6621 121.117 36.7145 121.621 34.9181 122.304L35.2733 123.238C36.9363 122.606 39.7666 122.111 43.5005 121.708C47.2189 121.307 51.7837 121.001 56.8848 120.729C67.0728 120.187 79.4139 119.782 91.312 119.026C103.213 118.27 114.73 117.161 123.309 115.198C127.595 114.218 131.186 113.017 133.731 111.519C136.27 110.024 137.878 108.165 137.945 105.843L136.945 105.814ZM34.9181 122.304C25.4645 125.896 19.3744 130.017 15.7786 134.345C12.1706 138.688 11.0916 143.221 11.6308 147.562C12.1678 151.885 14.3032 155.982 17.0565 159.499C19.8119 163.019 23.2088 165.989 26.3186 168.064L26.8735 167.232C23.8424 165.21 20.5269 162.31 17.844 158.883C15.1591 155.453 13.1305 151.523 12.6232 147.439C12.1183 143.374 13.1148 139.117 16.5478 134.984C19.9931 130.837 25.9094 126.797 35.2733 123.238L34.9181 122.304ZM177.038 216.531C170.828 217.507 154.481 220.066 139.757 225.991C132.395 228.953 125.404 232.771 120.286 237.68C115.159 242.599 111.893 248.633 112.051 255.995L113.051 255.974C112.901 248.959 115.999 243.179 120.978 238.402C125.967 233.617 132.826 229.858 140.13 226.919C154.736 221.041 170.98 218.496 177.194 217.518L177.038 216.531ZM247.998 301.895C291.229 299.059 329.537 293.624 357.051 284.688C370.806 280.221 381.899 274.868 389.563 268.499C397.236 262.123 401.5 254.701 401.5 246.126H400.5C400.5 254.322 396.439 261.485 388.924 267.73C381.399 273.983 370.441 279.288 356.742 283.737C329.347 292.634 291.138 298.063 247.933 300.897L247.998 301.895ZM401.5 246.126C401.5 237.549 396.849 229.78 389.618 222.898C382.384 216.013 372.518 209.963 361.957 204.815C340.832 194.518 316.821 187.776 305.227 185.173L305.008 186.149C316.557 188.742 340.488 195.463 361.519 205.714C372.035 210.841 381.8 216.837 388.928 223.622C396.059 230.409 400.5 237.934 400.5 246.126H401.5ZM26.3186 168.064C30.546 170.883 37.1853 173.126 45.3194 174.94C53.4673 176.758 63.1687 178.158 73.559 179.266C94.3395 181.483 117.921 182.538 137.422 183.43L137.468 182.431C117.959 181.539 94.4096 180.485 73.6651 178.272C63.2928 177.165 53.6331 175.77 45.5371 173.964C37.4273 172.155 30.9399 169.944 26.8735 167.232L26.3186 168.064ZM137.422 183.43C147.179 183.877 155.911 184.283 162.794 184.716C169.696 185.15 174.69 185.608 177.002 186.148L177.23 185.174C174.818 184.611 169.732 184.15 162.857 183.718C155.964 183.285 147.223 182.878 137.468 182.431L137.422 183.43ZM136.945 105.829V182.931H137.945V105.829H136.945ZM230.969 302.497C236.508 302.471 242.187 302.276 247.998 301.895L247.933 300.897C242.142 301.277 236.483 301.472 230.964 301.497L230.969 302.497ZM177.002 186.148C186.445 188.351 192.455 191.075 195.896 193.948C199.311 196.799 200.16 199.756 199.414 202.537L200.38 202.796C201.249 199.558 200.18 196.222 196.537 193.18C192.919 190.16 186.73 187.391 177.23 185.174L177.002 186.148ZM199.414 202.537C198.559 205.726 196.074 208.736 192.222 211.202C188.375 213.666 183.198 215.562 177.038 216.531L177.194 217.518C183.459 216.533 188.774 214.598 192.762 212.044C196.745 209.494 199.439 206.303 200.38 202.796L199.414 202.537ZM112.051 255.995C112.207 263.268 114.085 269.298 117.769 274.35C121.449 279.395 126.904 283.427 134.152 286.754C148.628 293.399 170.386 297.291 199.838 300.776L199.956 299.783C170.489 296.296 148.882 292.416 134.569 285.845C127.422 282.564 122.126 278.626 118.577 273.76C115.032 268.9 113.203 263.077 113.051 255.974L112.051 255.995ZM199.838 300.776C209.624 301.935 220.022 302.548 230.969 302.497L230.964 301.497C220.058 301.548 209.7 300.937 199.956 299.783L199.838 300.776ZM199.397 202.667V300.28H200.397V202.667H199.397ZM231.466 301.997V144.427H230.466V301.997H231.466ZM231.465 144.384C231.43 143.982 231.43 143.584 231.464 143.191L230.468 143.104C230.429 143.556 230.429 144.012 230.468 144.469L231.465 144.384ZM230.466 143.147V144.427H231.466V143.147H230.466ZM305.227 185.173C294.004 182.653 275.841 176.318 260.319 168.636C252.558 164.795 245.48 160.629 240.265 156.448C237.658 154.358 235.53 152.275 234.016 150.239C232.501 148.201 231.622 146.239 231.465 144.384L230.468 144.469C230.647 146.573 231.634 148.711 233.214 150.835C234.795 152.962 236.992 155.106 239.639 157.228C244.934 161.473 252.084 165.676 259.876 169.533C275.459 177.245 293.698 183.609 305.008 186.149L305.227 185.173Z" fill="#2F1664"/>
</g>
<path d="M133.794 62.2091C133.288 79.7076 40.0968 74.5756 25.4487 80.1416C-14.3911 95.28 3.4497 118.971 16.4512 127.642C34.0104 139.352 92.4985 141.929 133.794 143.818V62.2091Z" fill="#42D5B6"/>
<path d="M250.789 269.208C342.289 263.208 412.789 246.208 412.789 210.708C412.789 175.208 335.789 152.208 311.289 146.708C287.437 141.353 234.221 119.823 232.794 103.063C232.756 102.608 232.755 102.157 232.794 101.709V103.063V269.844C238.647 269.817 244.648 269.61 250.789 269.208Z" fill="#FF9C7E"/>
<path d="M175.789 179.905C162.637 181.973 106.789 190.708 107.442 221.142C108.094 251.576 137.534 260.646 199.905 268.027V164.708C198.003 171.794 188.942 177.836 175.789 179.905Z" fill="#FFBA7F"/>
<path d="M232.794 101.709C235.294 73.209 295.794 74.709 297.794 51.209C299.794 27.709 256.794 6.77631 195.294 2.70895C133.794 -1.35841 78.2945 0.208822 78.2945 25.709C78.2945 51.2091 134.3 44.7106 133.794 62.2091V143.818C154.449 144.763 170.788 145.541 175.789 146.708C195.843 151.387 201.615 158.336 199.905 164.708V268.027C210.242 269.25 221.228 269.898 232.794 269.844V103.063C232.756 102.608 232.755 102.157 232.794 101.709Z" fill="#2F1664"/>
<path d="M232.794 101.709L231.798 101.622L231.798 101.622L232.794 101.709ZM25.4487 80.1416L25.0935 79.2068L25.4487 80.1416ZM16.4512 127.642L17.006 126.81L16.4512 127.642ZM175.789 146.708L176.016 145.734L175.789 146.708ZM250.789 269.208L250.855 270.205L250.789 269.208ZM311.289 146.708L311.508 145.732L311.289 146.708ZM133.794 143.818L133.749 144.817L133.794 143.818ZM232.794 269.844L232.799 270.844L232.794 269.844ZM233.791 101.796C234.38 95.0766 238.376 90.0601 244.297 85.9191C250.239 81.7636 257.988 78.5836 265.846 75.5155C273.648 72.4692 281.578 69.5272 287.662 65.8624C293.744 62.1992 298.249 57.6552 298.791 51.2937L296.798 51.1242C296.339 56.5127 292.533 60.5937 286.63 64.1492C280.73 67.7032 273.003 70.5737 265.118 73.6524C257.289 76.7093 249.319 79.9668 243.151 84.2801C236.963 88.6079 232.459 94.0913 231.798 101.622L233.791 101.796ZM298.791 51.2937C299.32 45.075 296.858 39.1012 292.02 33.6265C287.19 28.1611 279.954 23.1432 270.788 18.7692C252.452 10.0193 226.193 3.75027 195.36 1.71113L195.228 3.70677C225.896 5.735 251.887 11.966 269.926 20.5742C278.948 24.8793 285.93 29.755 290.522 34.9509C295.105 40.1377 297.269 45.5929 296.798 51.1242L298.791 51.2937ZM195.36 1.71113C164.604 -0.322943 135.265 -0.955595 113.591 2.13113C102.763 3.67323 93.7489 6.15609 87.4157 9.92608C81.043 13.7196 77.2945 18.884 77.2945 25.709L79.2945 25.709C79.2945 19.7838 82.4834 15.1898 88.4388 11.6446C94.4337 8.07597 103.138 5.63996 113.873 4.11115C135.324 1.05608 164.484 1.67349 195.228 3.70677L195.36 1.71113ZM77.2945 25.709C77.2945 32.543 81.0846 37.1954 86.5105 40.5592C91.8941 43.8967 99.0142 46.0526 105.974 47.9253C113.006 49.8173 119.847 51.4155 124.937 53.627C130.076 55.859 132.902 58.4846 132.795 62.1802L134.794 62.238C134.94 57.1844 130.955 54.0604 125.734 51.7926C120.466 49.5041 113.4 47.8522 106.494 45.994C99.5158 44.1165 92.6661 42.0221 87.5644 38.8593C82.505 35.7228 79.2945 31.625 79.2945 25.709L77.2945 25.709ZM132.795 62.1802C132.746 63.8572 131.596 65.437 129.087 66.9136C126.594 68.3812 122.972 69.6105 118.489 70.6357C109.537 72.6828 97.4534 73.8523 84.8615 74.6521C72.2636 75.4522 59.2747 75.8766 48.4331 76.4536C43.0266 76.7414 38.1607 77.067 34.1817 77.4965C30.2335 77.9227 27.058 78.4604 25.0935 79.2068L25.8039 81.0764C27.5015 80.4313 30.4425 79.9118 34.3964 79.4849C38.3196 79.0614 43.1415 78.7381 48.5394 78.4508C59.3068 77.8778 72.394 77.4479 84.9883 76.648C97.5885 75.8477 109.813 74.6714 118.935 72.5854C123.488 71.5441 127.345 70.2599 130.102 68.6372C132.844 67.0233 134.716 64.9357 134.794 62.238L132.795 62.1802ZM25.0935 79.2068C15.0439 83.0255 8.51519 87.4252 4.63797 92.0916C0.736198 96.7876 -0.444916 101.715 0.142103 106.44C0.724459 111.128 3.03527 115.543 5.98215 119.307C8.93301 123.076 12.5673 126.253 15.8963 128.474L17.006 126.81C13.8343 124.694 10.3629 121.658 7.55699 118.074C4.74706 114.485 2.64989 110.404 2.12685 106.194C1.60847 102.021 2.62454 97.6444 6.17627 93.3697C9.75255 89.0655 15.9337 84.8269 25.8039 81.0764L25.0935 79.2068ZM175.634 178.917C169.062 179.95 151.708 182.665 136.065 188.958C128.246 192.105 120.784 196.173 115.304 201.428C109.807 206.701 106.271 213.208 106.442 221.163L108.441 221.12C108.286 213.859 111.487 207.861 116.688 202.872C121.908 197.865 129.107 193.914 136.812 190.814C152.219 184.615 169.365 181.927 175.945 180.892L175.634 178.917ZM250.855 270.205C296.63 267.204 337.229 261.448 366.411 251.971C380.998 247.234 392.805 241.545 400.983 234.75C409.179 227.94 413.789 219.962 413.789 210.708H411.789C411.789 219.204 407.587 226.663 399.705 233.212C391.805 239.776 380.268 245.368 365.793 250.069C336.85 259.468 296.449 265.211 250.724 268.21L250.855 270.205ZM413.789 210.708C413.789 201.448 408.767 193.11 401.065 185.78C393.358 178.446 382.865 172.018 371.665 166.559C349.259 155.638 323.804 148.492 311.508 145.732L311.07 147.683C323.275 150.423 348.569 157.527 370.789 168.357C381.901 173.773 392.189 180.095 399.686 187.229C407.187 194.368 411.789 202.217 411.789 210.708H413.789ZM15.8963 128.474C20.4471 131.509 27.5468 133.897 36.1689 135.82C44.8186 137.749 55.1079 139.233 66.1155 140.407C88.1303 142.755 113.108 143.873 133.749 144.817L133.84 142.819C113.185 141.874 88.2706 140.759 66.3276 138.419C55.3563 137.248 45.1502 135.774 36.6043 133.868C28.0309 131.955 21.2348 129.63 17.006 126.81L15.8963 128.474ZM133.749 144.817C144.078 145.29 153.317 145.72 160.599 146.178C167.918 146.638 173.16 147.121 175.562 147.681L176.016 145.734C173.417 145.127 167.989 144.638 160.725 144.182C153.423 143.722 144.165 143.291 133.84 142.819L133.749 144.817ZM132.794 62.2091V143.818H134.794V62.2091H132.794ZM232.799 270.844C238.672 270.817 244.694 270.61 250.855 270.205L250.724 268.21C244.603 268.611 238.622 268.817 232.79 268.844L232.799 270.844ZM175.562 147.681C185.531 150.008 191.809 152.87 195.368 155.841C198.875 158.768 199.671 161.72 198.939 164.448L200.871 164.967C201.849 161.323 200.614 157.615 196.649 154.305C192.736 151.039 186.101 148.087 176.016 145.734L175.562 147.681ZM198.939 164.448C198.074 167.674 195.543 170.775 191.527 173.346C187.52 175.911 182.104 177.899 175.634 178.917L175.945 180.892C182.627 179.842 188.318 177.775 192.605 175.03C196.884 172.291 199.835 168.828 200.871 164.967L198.939 164.448ZM106.442 221.163C106.609 228.942 108.62 235.422 112.585 240.858C116.543 246.283 122.392 250.594 130.112 254.138C145.513 261.207 168.617 265.331 199.787 269.02L200.023 267.034C168.822 263.341 146.021 259.24 130.946 252.32C123.428 248.869 117.897 244.745 114.201 239.68C110.514 234.625 108.601 228.559 108.441 221.12L106.442 221.163ZM199.787 269.02C210.166 270.248 221.193 270.898 232.799 270.844L232.79 268.844C221.264 268.898 210.318 268.252 200.023 267.034L199.787 269.02ZM198.905 164.708V268.027H200.905V164.708H198.905ZM233.794 269.844V103.063H231.794V269.844H233.794ZM233.791 102.978C233.757 102.578 233.756 102.185 233.791 101.796L231.798 101.622C231.754 102.129 231.755 102.638 231.798 103.148L233.791 102.978ZM231.794 101.709V103.063H233.794V101.709H231.794ZM311.508 145.732C299.67 143.074 280.478 136.382 264.076 128.266C255.874 124.208 248.415 119.815 242.932 115.42C240.191 113.222 237.971 111.046 236.401 108.934C234.827 106.818 233.948 104.823 233.791 102.978L231.798 103.148C231.998 105.493 233.093 107.837 234.796 110.127C236.502 112.422 238.86 114.719 241.681 116.98C247.323 121.503 254.926 125.97 263.189 130.059C279.714 138.236 299.057 144.986 311.07 147.683L311.508 145.732Z" fill="#2F1664"/>
<path d="M159.449 22.6416L161.677 30.9142L169.949 33.1416L161.677 35.369L159.449 43.6416L157.222 35.369L148.949 33.1416L157.222 30.9142L159.449 22.6416Z" fill="#F9F4F2"/>
<path d="M201.949 62.6416L203.01 66.5809L206.949 67.6416L203.01 68.7023L201.949 72.6416L200.889 68.7023L196.949 67.6416L200.889 66.5809L201.949 62.6416Z" fill="#F9F4F2"/>
<path d="M232.949 46.6416L234.646 52.9445L240.949 54.6416L234.646 56.3387L232.949 62.6416L231.252 56.3387L224.949 54.6416L231.252 52.9445L232.949 46.6416Z" fill="#F9F4F2"/>
<path d="M164.949 104.642L166.01 108.581L169.949 109.642L166.01 110.702L164.949 114.642L163.889 110.702L159.949 109.642L163.889 108.581L164.949 104.642Z" fill="#F9F4F2"/>
<path d="M224.949 246.642L226.01 250.581L229.949 251.642L226.01 252.702L224.949 256.642L223.889 252.702L219.949 251.642L223.889 250.581L224.949 246.642Z" fill="#F9F4F2"/>
<path d="M162.449 62.6416L162.98 64.6113L164.949 65.1416L162.98 65.6719L162.449 67.6416L161.919 65.6719L159.949 65.1416L161.919 64.6113L162.449 62.6416Z" fill="#F9F4F2"/>
<path d="M146.449 84.6416L146.98 86.6113L148.949 87.1416L146.98 87.6719L146.449 89.6416L145.919 87.6719L143.949 87.1416L145.919 86.6113L146.449 84.6416Z" fill="#F9F4F2"/>
<path d="M212.949 100.642L213.373 102.217L214.949 102.642L213.373 103.066L212.949 104.642L212.525 103.066L210.949 102.642L212.525 102.217L212.949 100.642Z" fill="#F9F4F2"/>
<path d="M204.949 231.642L205.373 233.217L206.949 233.642L205.373 234.066L204.949 235.642L204.525 234.066L202.949 233.642L204.525 233.217L204.949 231.642Z" fill="#F9F4F2"/>
<path d="M226.949 184.642L227.373 186.217L228.949 186.642L227.373 187.066L226.949 188.642L226.525 187.066L224.949 186.642L226.525 186.217L226.949 184.642Z" fill="#F9F4F2"/>
<path d="M212.949 29.6416L213.373 31.2173L214.949 31.6416L213.373 32.0659L212.949 33.6416L212.525 32.0659L210.949 31.6416L212.525 31.2173L212.949 29.6416Z" fill="#F9F4F2"/>
<path d="M108.949 20.6416L109.373 22.2173L110.949 22.6416L109.373 23.0659L108.949 24.6416L108.525 23.0659L106.949 22.6416L108.525 22.2173L108.949 20.6416Z" fill="#F9F4F2"/>
<path d="M219.949 146.642L221.01 150.581L224.949 151.642L221.01 152.702L219.949 156.642L218.889 152.702L214.949 151.642L218.889 150.581L219.949 146.642Z" fill="#F9F4F2"/>
</svg>
