<svg width="282" height="163" viewBox="0 0 282 163" fill="none" xmlns="http://www.w3.org/2000/svg">
<g opacity="0.2">
<path d="M112.415 31C189.177 31 242.636 48.5256 235.987 59.5316C229.339 70.5375 178.455 65.1626 176.92 77.1924C176.898 77.3631 176.898 77.5311 176.92 77.6962V159.488C157.793 162.693 122.262 162.979 96.0368 159.488V97.8546C96.0368 80.7853 5.00076 81.2595 5.00076 59.531C5.00076 41.4312 49.2559 31 112.415 31Z" fill="#2F1664"/>
<path d="M266.513 105.915C274.573 118.243 261.984 138.631 231.164 148.114C200.345 157.597 196.047 156.284 176.92 159.488V77.6962C176.92 103.544 258.453 93.5873 266.513 105.915Z" fill="#2F1664"/>
<path d="M32.9713 128.2C36.2903 112.553 96.0368 114.924 96.0368 97.8546V159.488C90.4799 158.749 85.3408 157.809 80.8641 156.649C55.2602 150.011 29.6523 143.847 32.9713 128.2Z" fill="#2F1664"/>
<path d="M80.8641 156.649L81.1151 155.681L80.8641 156.649ZM112.415 30C150.864 30 183.506 34.3883 205.732 40.1708C216.832 43.0585 225.398 46.3102 230.796 49.5747C233.484 51.2003 235.481 52.8845 236.579 54.6087C237.134 55.4818 237.479 56.396 237.537 57.336C237.595 58.2863 237.356 59.1997 236.843 60.0486L235.132 59.0145C235.45 58.4877 235.572 57.9744 235.541 57.4588C235.508 56.933 235.311 56.3421 234.891 55.6826C234.038 54.3419 232.349 52.8511 229.761 51.2861C224.607 48.169 216.258 44.9757 205.228 42.1063C183.197 36.3745 150.728 32 112.415 32V30ZM236.843 60.0486C235.862 61.6726 234.13 62.8997 232.02 63.8661C229.895 64.839 227.277 65.5972 224.38 66.2202C218.589 67.4651 211.497 68.2065 204.647 68.9719C197.757 69.7418 191.124 70.535 186.12 71.8716C183.616 72.5405 181.597 73.3265 180.178 74.2652C178.767 75.1979 178.054 76.2064 177.912 77.319L175.928 77.0658C176.17 75.1709 177.383 73.7158 179.075 72.5969C180.758 71.484 183.017 70.6303 185.604 69.9394C190.78 68.5566 197.572 67.75 204.425 66.9842C211.32 66.2138 218.291 65.4835 223.959 64.2649C226.791 63.656 229.251 62.9345 231.187 62.0477C233.138 61.1545 234.45 60.142 235.132 59.0145L236.843 60.0486ZM267.35 105.368C271.696 112.015 270.355 120.669 264.212 128.689C258.062 136.72 247.01 144.285 231.458 149.07L230.87 147.158C246.138 142.46 256.791 135.09 262.624 127.473C268.466 119.847 269.39 112.143 265.676 106.462L267.35 105.368ZM4.00076 59.531C4.00076 54.5411 7.06397 50.2298 12.3368 46.6126C17.6109 42.9945 25.2445 39.9577 34.7744 37.5095C53.848 32.6097 80.7953 30 112.415 30V32C80.8754 32 54.1157 34.6059 35.272 39.4466C25.8432 41.8688 18.4657 44.8335 13.4682 48.2618C8.46944 51.691 6.00076 55.471 6.00076 59.531H4.00076ZM231.458 149.07C200.554 158.579 196.136 157.283 177.085 160.475L176.755 158.502C195.958 155.285 200.135 156.615 230.87 147.158L231.458 149.07ZM6.00076 59.531C6.00076 61.8522 7.2033 63.966 9.55725 65.9517C11.922 67.9465 15.3584 69.7292 19.5837 71.3519C28.0298 74.5957 39.3285 77.0924 50.7223 79.4609C62.0701 81.8199 73.5172 84.0525 82.1136 86.7674C86.4082 88.1238 90.0722 89.6242 92.6806 91.3668C95.2705 93.0971 97.0368 95.219 97.0368 97.8546H95.0368C95.0368 96.2229 93.9582 94.6257 91.5696 93.0298C89.1994 91.4464 85.7512 90.0137 81.5113 88.6746C73.0383 85.9987 61.7264 83.7913 50.3153 81.4191C38.95 79.0565 27.4898 76.5308 18.8666 73.2189C14.5572 71.5639 10.8815 69.6853 8.26768 67.4805C5.6431 65.2665 4.00076 62.642 4.00076 59.531H6.00076ZM97.0368 97.8546C97.0368 100.318 95.9465 102.393 94.1612 104.133C92.3951 105.856 89.9213 107.283 87.0435 108.516C81.2912 110.981 73.6253 112.792 65.9708 114.536C58.2656 116.291 50.5641 117.979 44.5724 120.196C41.5793 121.303 39.0752 122.521 37.2347 123.903C35.397 125.284 34.2968 126.77 33.9495 128.407L31.993 127.992C32.4755 125.718 33.9684 123.856 36.0334 122.304C38.0956 120.755 40.8037 119.457 43.8785 118.32C50.0228 116.047 57.8802 114.327 65.5266 112.586C73.2236 110.832 80.7017 109.058 86.2557 106.678C89.0309 105.488 91.2507 104.178 92.765 102.702C94.26 101.244 95.0368 99.6584 95.0368 97.8546H97.0368ZM33.9495 128.407C33.1873 132.001 34.0712 135.017 36.2309 137.683C38.4265 140.394 41.9591 142.761 46.4977 144.898C55.5797 149.175 68.2708 152.351 81.1151 155.681L80.6132 157.617C67.8535 154.309 54.9387 151.084 45.6456 146.707C40.9966 144.518 37.1492 141.995 34.6767 138.942C32.1682 135.845 31.0958 132.222 31.993 127.992L33.9495 128.407ZM177.085 160.475C157.842 163.698 122.209 163.98 95.9049 160.48L96.1687 158.497C122.315 161.977 157.744 161.687 176.755 158.502L177.085 160.475ZM95.9049 160.48C90.3207 159.737 85.1398 158.79 80.6132 157.617L81.1151 155.681C85.5418 156.828 90.6391 157.761 96.1687 158.497L95.9049 160.48ZM97.0368 97.8546V159.488H95.0368V97.8546H97.0368ZM177.912 77.319C177.901 77.4063 177.901 77.4881 177.911 77.5666L175.928 77.8258C175.895 77.574 175.895 77.32 175.928 77.0657L177.912 77.319ZM177.92 77.6962V159.488H175.92V77.6962H177.92ZM177.92 77.1924V77.6962H175.92V77.1924H177.92ZM177.92 77.6962C177.92 83.4846 182.443 87.4746 190.134 90.3394C197.774 93.1851 208.105 94.7401 218.8 95.8814C229.425 97.0153 240.463 97.7439 249.249 98.9493C253.656 99.5537 257.569 100.286 260.653 101.271C263.685 102.239 266.14 103.517 267.35 105.368L265.676 106.462C264.871 105.231 263.014 104.124 260.045 103.176C257.127 102.244 253.349 101.53 248.978 100.931C240.21 99.728 229.353 99.019 218.588 97.8701C207.892 96.7287 197.336 95.156 189.436 92.2136C181.588 89.2903 175.92 84.8319 175.92 77.6962H177.92Z" fill="#2F1664"/>
<path d="M173.104 45.2246L171.696 50.4545L166.466 51.8627L171.696 53.2708L173.104 58.5007L174.512 53.2708L179.742 51.8627L174.512 50.4545L173.104 45.2246Z" fill="#2F1664"/>
<path d="M133.276 72.7246L132.27 76.4603L128.535 77.4661L132.27 78.4719L133.276 82.2075L134.282 78.4719L138.018 77.4661L134.282 76.4603L133.276 72.7246Z" fill="#2F1664"/>
<path d="M89.655 67.9834L88.6492 71.719L84.9136 72.7249L88.6492 73.7307L89.655 77.4663L90.6608 73.7307L94.3965 72.7249L90.6608 71.719L89.655 67.9834Z" fill="#2F1664"/>
<path d="M155.087 127.726L153.478 133.703L147.501 135.312L153.478 136.921L155.087 142.898L156.697 136.921L162.674 135.312L156.697 133.703L155.087 127.726Z" fill="#2F1664"/>
<path d="M64.9988 48.0693L63.993 51.805L60.2573 52.8108L63.993 53.8166L64.9988 57.5523L66.0046 53.8166L69.7402 52.8108L66.0046 51.805L64.9988 48.0693Z" fill="#2F1664"/>
<path d="M160.303 83.1562L159.8 85.0241L157.932 85.527L159.8 86.0299L160.303 87.8977L160.806 86.0299L162.674 85.527L160.806 85.0241L160.303 83.1562Z" fill="#2F1664"/>
<path d="M120.475 108.76L119.972 110.628L118.104 111.13L119.972 111.633L120.475 113.501L120.978 111.633L122.846 111.13L120.978 110.628L120.475 108.76Z" fill="#2F1664"/>
<path d="M105.775 141.002L105.373 142.496L103.879 142.899L105.373 143.301L105.775 144.795L106.178 143.301L107.672 142.899L106.178 142.496L105.775 141.002Z" fill="#2F1664"/>
<path d="M112.414 51.8623L112.012 53.3566L110.517 53.7589L112.012 54.1612L112.414 55.6555L112.816 54.1612L114.311 53.7589L112.816 53.3566L112.414 51.8623Z" fill="#2F1664"/>
<path d="M33.7069 54.707L33.3046 56.2013L31.8103 56.6036L33.3046 57.0059L33.7069 58.5002L34.1093 57.0059L35.6035 56.6036L34.1093 56.2013L33.7069 54.707Z" fill="#2F1664"/>
<path d="M47.9296 63.2422L47.5273 64.7364L46.033 65.1388L47.5273 65.5411L47.9296 67.0354L48.3319 65.5411L49.8262 65.1388L48.3319 64.7364L47.9296 63.2422Z" fill="#2F1664"/>
</g>
<path d="M115 1C195.948 1 252.321 19.4812 245.311 31.0873C238.3 42.6934 184.641 37.0254 183.022 49.7111C182.999 49.8912 182.999 50.0683 183.022 50.2424V136.495C162.853 139.873 125.384 140.175 97.7287 136.495V71.5C97.7287 53.5 1.72873 54 1.72873 31.0868C1.72873 12 48.397 1 115 1Z" fill="#2F1664"/>
<path d="M277.5 80C286 93 272.724 114.5 240.224 124.5C207.724 134.5 203.192 133.116 183.022 136.495V50.2424C183.022 77.5 269.001 67 277.5 80Z" fill="#FF8096"/>
<path d="M31.2244 103.5C34.7244 87 97.7287 89.5 97.7287 71.5V136.495C91.8688 135.715 86.4495 134.724 81.7287 133.5C54.7287 126.5 27.7244 120 31.2244 103.5Z" fill="#FF9C7E"/>
<path d="M81.7287 133.5L81.9797 132.532L81.7287 133.5ZM115 0C155.542 0 189.959 4.62721 213.392 10.7236C225.095 13.7683 234.122 17.1957 239.808 20.6342C242.64 22.3468 244.737 24.1175 245.888 25.9253C246.47 26.8402 246.83 27.7954 246.89 28.7754C246.951 29.7656 246.702 30.718 246.167 31.6044L244.455 30.5703C244.796 30.0059 244.928 29.4538 244.894 28.8982C244.859 28.3324 244.647 27.7005 244.201 26.9992C243.294 25.5749 241.505 23.9976 238.773 22.3456C233.331 19.0545 224.52 15.6855 212.888 12.6592C189.65 6.61341 155.406 2 115 2V0ZM246.167 31.6044C245.14 33.3034 243.325 34.5916 241.104 35.6087C238.869 36.6323 236.112 37.4308 233.058 38.0873C226.955 39.3994 219.479 40.181 212.256 40.9882C204.99 41.8 197.991 42.6368 192.71 44.0476C190.068 44.7535 187.932 45.5843 186.428 46.5788C184.932 47.5675 184.167 48.6432 184.014 49.8377L182.03 49.5845C182.283 47.6076 183.548 46.0854 185.324 44.9106C187.092 43.7417 189.469 42.8434 192.194 42.1153C197.648 40.6584 204.805 39.8082 212.033 39.0005C219.303 38.1883 226.657 37.4178 232.638 36.132C235.626 35.4896 238.224 34.7277 240.271 33.7902C242.333 32.8463 243.728 31.7728 244.455 30.5703L246.167 31.6044ZM278.337 79.4528C282.903 86.4362 281.501 95.5364 275.031 103.983C268.554 112.44 256.91 120.412 240.518 125.456L239.93 123.544C256.038 118.588 267.283 110.81 273.443 102.767C279.612 94.7136 280.597 86.5638 276.663 80.5472L278.337 79.4528ZM0.728729 31.0868C0.728729 25.8501 3.94276 21.3182 9.49562 17.5089C15.0497 13.6987 23.0927 10.4982 33.1394 7.91729C53.2468 2.75191 81.6583 0 115 0V2C81.7384 2 53.5145 4.74809 33.637 9.8544C23.6913 12.4093 15.9045 15.5376 10.627 19.1581C5.34823 22.7794 2.72873 26.78 2.72873 31.0868H0.728729ZM240.518 125.456C207.934 135.482 203.281 134.115 183.187 137.481L182.857 135.508C203.103 132.117 207.515 133.518 239.93 123.544L240.518 125.456ZM2.72873 31.0868C2.72873 33.556 4.00883 35.799 6.49852 37.8992C8.999 40.0085 12.6293 41.891 17.0873 43.6031C25.9987 47.0256 37.918 49.6592 49.9323 52.1568C61.9006 54.6448 73.9682 56.9984 83.0299 59.8603C87.5572 61.2901 91.4151 62.8705 94.1592 64.7038C96.8849 66.5248 98.7287 68.7481 98.7287 71.5H96.7287C96.7287 69.7519 95.5726 68.0533 93.0482 66.3668C90.5423 64.6927 86.9002 63.18 82.4276 61.7674C73.4893 58.9445 61.5569 56.6161 49.5252 54.1149C37.5395 51.6233 25.4587 48.9607 16.3702 45.4701C11.8281 43.7257 7.95846 41.7473 5.20894 39.428C2.44863 37.0995 0.728729 34.3458 0.728729 31.0868H2.72873ZM98.7287 71.5C98.7287 74.0799 97.5875 76.2542 95.7128 78.0822C93.8573 79.8915 91.2555 81.3932 88.2235 82.6926C82.163 85.2898 74.0842 87.1986 66.0112 89.0375C57.8875 90.888 49.7617 92.6692 43.4392 95.0082C40.2806 96.1767 37.6344 97.4629 35.6875 98.9255C33.7435 100.386 32.5726 101.963 32.2026 103.708L30.2462 103.292C30.7512 100.912 32.3149 98.9577 34.4863 97.3265C36.6548 95.6973 39.5051 94.3311 42.7453 93.1324C49.2205 90.737 57.5021 88.9245 65.567 87.0875C73.6825 85.2389 81.5735 83.3665 87.4357 80.8543C90.3651 79.5989 92.7128 78.214 94.3165 76.6502C95.901 75.1052 96.7287 73.4201 96.7287 71.5H98.7287ZM32.2026 103.708C31.3951 107.514 32.3324 110.711 34.6194 113.535C36.9423 116.403 40.676 118.903 45.4651 121.158C55.0481 125.671 68.4374 129.021 81.9797 132.532L81.4778 134.468C68.0201 130.979 54.4072 127.579 44.613 122.967C39.7135 120.66 35.665 118.003 33.0652 114.793C30.4294 111.539 29.3037 107.736 30.2462 103.292L32.2026 103.708ZM183.187 137.481C162.901 140.879 125.331 141.177 97.5968 137.486L97.8607 135.503C125.437 139.173 162.804 138.868 182.857 135.508L183.187 137.481ZM97.5968 137.486C91.7096 136.702 86.2485 135.705 81.4778 134.468L81.9797 132.532C86.6505 133.743 92.028 134.727 97.8607 135.503L97.5968 137.486ZM98.7287 71.5V136.495H96.7287V71.5H98.7287ZM184.014 49.8377C184.002 49.9343 184.002 50.0253 184.014 50.1128L182.031 50.3721C181.997 50.1113 181.997 49.8481 182.03 49.5845L184.014 49.8377ZM184.022 50.2424V136.495H182.022V50.2424H184.022ZM184.022 49.7111V50.2424H182.022V49.7111H184.022ZM184.022 50.2424C184.022 56.3832 188.823 60.6035 196.938 63.6261C205.002 66.6296 215.902 68.2699 227.18 69.4735C238.388 70.6696 250.023 71.4374 259.288 72.7084C263.934 73.3456 268.057 74.1175 271.305 75.1543C274.5 76.1745 277.072 77.518 278.337 79.4528L276.663 80.5472C275.803 79.232 273.829 78.0599 270.696 77.0595C267.615 76.0758 263.627 75.3222 259.016 74.6898C249.77 73.4215 238.316 72.6732 226.968 71.4622C215.689 70.2585 204.563 68.6005 196.24 65.5003C187.968 62.4192 182.022 57.7305 182.022 50.2424H184.022Z" fill="black"/>
<path d="M179 16L177.515 21.5151L172 23L177.515 24.4849L179 30L180.485 24.4849L186 23L180.485 21.5151L179 16Z" fill="#F9F4F2"/>
<path d="M137 45L135.939 48.9393L132 50L135.939 51.0607L137 55L138.061 51.0607L142 50L138.061 48.9393L137 45Z" fill="#F9F4F2"/>
<path d="M91 40L89.9393 43.9393L86 45L89.9393 46.0607L91 50L92.0607 46.0607L96 45L92.0607 43.9393L91 40Z" fill="#F9F4F2"/>
<path d="M160 103L158.303 109.303L152 111L158.303 112.697L160 119L161.697 112.697L168 111L161.697 109.303L160 103Z" fill="#F9F4F2"/>
<path d="M65 19L63.9393 22.9393L60 24L63.9393 25.0607L65 29L66.0607 25.0607L70 24L66.0607 22.9393L65 19Z" fill="#F9F4F2"/>
<path d="M165.5 56L164.97 57.9697L163 58.5L164.97 59.0303L165.5 61L166.03 59.0303L168 58.5L166.03 57.9697L165.5 56Z" fill="#F9F4F2"/>
<path d="M123.5 83L122.97 84.9697L121 85.5L122.97 86.0303L123.5 88L124.03 86.0303L126 85.5L124.03 84.9697L123.5 83Z" fill="#F9F4F2"/>
<path d="M108 117L107.576 118.576L106 119L107.576 119.424L108 121L108.424 119.424L110 119L108.424 118.576L108 117Z" fill="#F9F4F2"/>
<path d="M115 23L114.576 24.5757L113 25L114.576 25.4243L115 27L115.424 25.4243L117 25L115.424 24.5757L115 23Z" fill="#F9F4F2"/>
<path d="M32 26L31.5757 27.5757L30 28L31.5757 28.4243L32 30L32.4243 28.4243L34 28L32.4243 27.5757L32 26Z" fill="#F9F4F2"/>
<path d="M47 35L46.5757 36.5757L45 37L46.5757 37.4243L47 39L47.4243 37.4243L49 37L47.4243 36.5757L47 35Z" fill="#F9F4F2"/>
</svg>
