<?xml version="1.0" standalone="no"?>
<svg xmlns:xlink="http://www.w3.org/1999/xlink" id="wave" style="transform:rotate(0deg); transition: 0.3s" viewBox="0 0 1440 490" version="1.1" xmlns="http://www.w3.org/2000/svg"><defs><linearGradient id="sw-gradient-0" x1="0" x2="0" y1="1" y2="0"><stop stop-color="rgba(28, 28, 28, 1)" offset="0%"/><stop stop-color="rgba(28, 28, 28, 1)" offset="100%"/></linearGradient></defs><path style="transform:translate(0, 0px); opacity:1" fill="url(#sw-gradient-0)" d="M0,196L60,179.7C120,163,240,131,360,114.3C480,98,600,98,720,114.3C840,131,960,163,1080,171.5C1200,180,1320,163,1440,163.3C1560,163,1680,180,1800,155.2C1920,131,2040,65,2160,106.2C2280,147,2400,294,2520,294C2640,294,2760,147,2880,147C3000,147,3120,294,3240,367.5C3360,441,3480,441,3600,400.2C3720,359,3840,278,3960,220.5C4080,163,4200,131,4320,138.8C4440,147,4560,196,4680,187.8C4800,180,4920,114,5040,81.7C5160,49,5280,49,5400,114.3C5520,180,5640,310,5760,310.3C5880,310,6000,180,6120,130.7C6240,82,6360,114,6480,171.5C6600,229,6720,310,6840,351.2C6960,392,7080,392,7200,392C7320,392,7440,392,7560,367.5C7680,343,7800,294,7920,245C8040,196,8160,147,8280,114.3C8400,82,8520,65,8580,57.2L8640,49L8640,490L8580,490C8520,490,8400,490,8280,490C8160,490,8040,490,7920,490C7800,490,7680,490,7560,490C7440,490,7320,490,7200,490C7080,490,6960,490,6840,490C6720,490,6600,490,6480,490C6360,490,6240,490,6120,490C6000,490,5880,490,5760,490C5640,490,5520,490,5400,490C5280,490,5160,490,5040,490C4920,490,4800,490,4680,490C4560,490,4440,490,4320,490C4200,490,4080,490,3960,490C3840,490,3720,490,3600,490C3480,490,3360,490,3240,490C3120,490,3000,490,2880,490C2760,490,2640,490,2520,490C2400,490,2280,490,2160,490C2040,490,1920,490,1800,490C1680,490,1560,490,1440,490C1320,490,1200,490,1080,490C960,490,840,490,720,490C600,490,480,490,360,490C240,490,120,490,60,490L0,490Z"/></svg>